<?xml version="1.0" encoding="UTF-8"?>
<svg id="Layer_1" xmlns="http://www.w3.org/2000/svg" version="1.1" viewBox="0 0 655 220">
  <!-- Generator: Adobe Illustrator 30.1.0, SVG Export Plug-In . SVG Version: 2.1.1 Build 136)  -->
  <defs>
    <style>
      .st0 {
        fill: #262626;
      }
    </style>
  </defs>
  <path class="st0" d="M241.4,41h-27.4l-1.8.5-27.4,17.2-1.5,2.8v13.9h-24.1l-1.8.5-27.3,17.2-1.5,2.8v68.7l3.3,3.3h109.6l3.3-3.3V44.3l-3.3-3.3ZM135.4,126.4l19.5-12.2c.5-.3,1,0,1,.6v20.2l-19.8,12.4c-.5.3-1,0-1-.6v-19.8c0-.2.1-.5.3-.6ZM163.7,82.1h18.4c.6,0,1.2.5,1.2,1.2v76.9c0,.6-.5,1.2-1.2,1.2h-18.4c-.6,0-1.2-.5-1.2-1.2v-76.9c0-.6.5-1.2,1.2-1.2ZM210.4,129.9l-19.6,12.3c-.4.3-1,0-1-.5v-19.9c0-.2.1-.4.3-.5l19.6-12.3c.4-.3,1,0,1,.5v19.9c0,.2-.1.4-.3.5ZM210.4,100.6l-19.6,12.3c-.4.3-1,0-1-.5v-19.9c0-.2.1-.4.3-.5l19.6-12.3c.4-.3,1,0,1,.5v19.9c0,.2-.1.4-.3.5ZM190.1,150.4l19.6-12.3c.4-.3,1,0,1,.5v21.6c0,.6-.5,1.1-1.1,1.1h-18.6c-.6,0-1.1-.5-1.1-1.1v-9.3c0-.2.1-.4.3-.5ZM190.1,63.2l19.6-12.3c.4-.3,1,0,1,.5v19.5c0,.2-.1.4-.3.5l-19.6,12.3c-.4.3-1,0-1-.5v-19.5c0-.2.1-.4.3-.5ZM155.9,85.9v19.4c0,.2-.1.5-.3.6l-19.5,12.2c-.5.3-1,0-1-.6v-19.4c0-.2.1-.5.3-.6l19.5-12.2c.5-.3,1,0,1,.6ZM135.4,155.6l19.5-12.2c.5-.3,1,0,1,.6v16.2c0,.7-.6,1.2-1.2,1.2h-18.4c-.7,0-1.2-.6-1.2-1.2v-3.9c0-.2.1-.5.3-.6h0ZM237,161.3h-18.6c-.6,0-1.1-.5-1.1-1.1V48.7c0-.6.5-1.1,1.1-1.1h18.6c.6,0,1.1.5,1.1,1.1v111.5c0,.6-.5,1.1-1.1,1.1Z"/>
  <path class="st0" d="M298,81v37.3h-7.7v-37.3h7.7ZM267.5,118.3v-37.3h7.7v37.3h-7.7ZM274.4,102.6v-6.5h16.7v6.5h-16.7Z"/>
  <path class="st0" d="M316,119.1c-2.7,0-5.1-.6-7.3-1.8-2.2-1.2-3.9-3-5.2-5.2-1.2-2.2-1.9-4.7-1.9-7.5s.6-5.3,1.9-7.5c1.3-2.2,3-4,5.2-5.2,2.2-1.2,4.6-1.9,7.3-1.9s5.1.6,7.3,1.9c2.2,1.2,3.9,2.9,5.2,5.2,1.3,2.2,1.9,4.7,1.9,7.5s-.6,5.3-1.9,7.5c-1.2,2.2-3,3.9-5.2,5.2-2.2,1.2-4.6,1.8-7.3,1.8ZM316,113.2c1.4,0,2.6-.3,3.7-1,1-.7,1.8-1.7,2.3-2.9.6-1.3.9-2.9.9-4.7s-.3-3.4-.9-4.7c-.5-1.3-1.3-2.3-2.3-2.9-1-.7-2.3-1-3.7-1s-2.6.3-3.7,1c-1,.6-1.8,1.6-2.4,2.9-.5,1.3-.8,2.8-.8,4.7s.3,3.4.8,4.7c.6,1.3,1.4,2.3,2.4,2.9,1,.6,2.3,1,3.7,1Z"/>
  <path class="st0" d="M334,90.9h7.1v4.2l-.3-.4c.7-1.5,1.8-2.7,3.1-3.4,1.4-.8,2.9-1.2,4.7-1.2s3.2.4,4.5,1.3c1.3.9,2.3,2.1,2.9,3.5h-.6c.9-1.6,2-2.8,3.5-3.6,1.5-.9,3.3-1.3,5.3-1.3s3.6.4,5,1.2c1.5.8,2.6,1.9,3.3,3.4.8,1.5,1.2,3.2,1.2,5.2v18.4h-7.4v-17.5c0-1.5-.3-2.6-1-3.5-.6-.8-1.6-1.2-2.9-1.2s-2.8.6-3.7,1.7c-.8,1.1-1.2,2.6-1.2,4.6v15.9h-7.4v-17.5c0-1.5-.3-2.6-1-3.5-.6-.8-1.6-1.2-2.9-1.2s-2,.2-2.7.7c-.7.5-1.3,1.2-1.7,2.2-.4.9-.5,2-.5,3.4v15.9h-7.4v-27.4Z"/>
  <path class="st0" d="M391.4,119.1c-3,0-5.6-.6-7.8-1.8-2.2-1.2-3.8-2.9-5-5.1-1.2-2.2-1.8-4.7-1.8-7.6s.6-5.3,1.9-7.5c1.3-2.2,3-4,5.1-5.2,2.2-1.2,4.5-1.9,7.1-1.9s5.2.7,7.3,2c2.1,1.3,3.8,3.2,5,5.7,1.2,2.5,1.8,5.5,1.9,9h-24.1v-5.1h19.5l-2.6,1.9c0-2.3-.6-4.2-1.8-5.6-1.2-1.5-2.8-2.2-5-2.2s-2.5.3-3.6,1c-1,.6-1.8,1.5-2.5,2.7-.6,1.1-.9,2.3-.9,3.6v2.9c0,1.5.3,2.8.9,3.9.6,1.1,1.5,2,2.6,2.7,1.1.6,2.3.9,3.7.9s2.4-.2,3.3-.6c.9-.4,1.5-1,1.9-1.8h7.7c-.8,2.5-2.3,4.5-4.6,5.9-2.2,1.4-5,2.1-8.3,2.1Z"/>
  <path class="st0" d="M267.5,127h26.9v6.5h-22.6l3.5-3.5v12.9l-1-1h17.2v6.3h-17.2l1-1v13.9l-3.5-3.5h22.9v6.5h-27.1v-37.3Z"/>
  <path class="st0" d="M310.1,165.1c-2.7,0-5.2-.6-7.3-1.8-2.1-1.2-3.7-2.9-4.9-5.1-1.2-2.2-1.8-4.7-1.8-7.6s.6-5.3,1.8-7.5c1.2-2.2,2.9-3.9,5-5.2,2.2-1.2,4.6-1.9,7.4-1.9s4.4.4,6.2,1.3c1.8.9,3.3,2,4.4,3.5,1.1,1.5,1.8,3.1,2,5h-7.1c-.4-1.1-1-2.1-2-2.8-.9-.7-2.1-1.1-3.6-1.1s-2.4.3-3.4,1c-1,.7-1.7,1.7-2.2,3-.5,1.3-.8,2.8-.8,4.6s.3,3.3.8,4.6c.5,1.3,1.3,2.3,2.2,2.9,1,.6,2.1,1,3.4,1s2.6-.4,3.6-1.1c.9-.7,1.6-1.6,2-2.8h7.1c-.2,1.8-.9,3.5-2,5-1.1,1.5-2.6,2.7-4.5,3.6-1.8.9-3.9,1.3-6.3,1.3Z"/>
  <path class="st0" d="M338.9,165.1c-2.7,0-5.1-.6-7.3-1.8-2.2-1.2-3.9-3-5.2-5.2-1.2-2.2-1.9-4.7-1.9-7.5s.6-5.3,1.9-7.5c1.3-2.2,3-4,5.2-5.2,2.2-1.2,4.6-1.9,7.3-1.9s5.1.6,7.3,1.9c2.2,1.2,3.9,2.9,5.2,5.2,1.3,2.2,1.9,4.7,1.9,7.5s-.6,5.3-1.9,7.5c-1.2,2.2-3,3.9-5.2,5.2-2.2,1.2-4.6,1.8-7.3,1.8ZM338.9,159.2c1.4,0,2.6-.3,3.7-1,1-.7,1.8-1.7,2.3-2.9.6-1.3.9-2.9.9-4.7s-.3-3.4-.9-4.7c-.5-1.3-1.3-2.3-2.3-2.9-1-.7-2.3-1-3.7-1s-2.6.3-3.7,1c-1,.6-1.8,1.6-2.4,2.9-.5,1.3-.8,2.8-.8,4.7s.3,3.4.8,4.7c.6,1.3,1.4,2.3,2.4,2.9,1,.6,2.3,1,3.7,1Z"/>
  <path class="st0" d="M356.8,136.9h7.1v4.4l-.2-.6c.7-1.2,1.7-2.3,3-3.3,1.3-.9,3.1-1.4,5.2-1.4s3.4.4,4.8,1.2c1.3.8,2.4,1.9,3.1,3.4.7,1.5,1.1,3.3,1.1,5.4v18.2h-7.4v-17.7c0-1.4-.3-2.5-.9-3.4-.6-.9-1.6-1.3-3.1-1.3s-1.8.2-2.7.7c-.8.5-1.5,1.3-2,2.3-.5,1.1-.7,2.4-.7,4v15.2h-7.4v-27.4Z"/>
  <path class="st0" d="M398.7,165.1c-2.7,0-5.1-.6-7.3-1.8-2.2-1.2-3.9-3-5.2-5.2-1.2-2.2-1.9-4.7-1.9-7.5s.6-5.3,1.9-7.5c1.3-2.2,3-4,5.2-5.2,2.2-1.2,4.6-1.9,7.3-1.9s5.1.6,7.3,1.9c2.2,1.2,3.9,2.9,5.2,5.2,1.3,2.2,1.9,4.7,1.9,7.5s-.6,5.3-1.9,7.5c-1.2,2.2-3,3.9-5.2,5.2-2.2,1.2-4.6,1.8-7.3,1.8ZM398.7,159.2c1.4,0,2.6-.3,3.7-1,1-.7,1.8-1.7,2.3-2.9.6-1.3.9-2.9.9-4.7s-.3-3.4-.9-4.7c-.5-1.3-1.3-2.3-2.3-2.9-1-.7-2.3-1-3.7-1s-2.6.3-3.7,1c-1,.6-1.8,1.6-2.4,2.9-.5,1.3-.8,2.8-.8,4.7s.3,3.4.8,4.7c.6,1.3,1.4,2.3,2.4,2.9,1,.6,2.3,1,3.7,1Z"/>
  <path class="st0" d="M416.6,136.9h7.1v4.2l-.3-.4c.7-1.5,1.8-2.7,3.1-3.4,1.4-.8,2.9-1.2,4.7-1.2s3.2.4,4.5,1.3c1.3.9,2.3,2.1,2.9,3.5h-.6c.9-1.6,2-2.8,3.5-3.6,1.5-.9,3.2-1.3,5.3-1.3s3.6.4,5,1.2c1.5.8,2.6,1.9,3.3,3.4.8,1.5,1.2,3.2,1.2,5.2v18.4h-7.4v-17.5c0-1.5-.3-2.6-1-3.5-.6-.8-1.6-1.2-2.9-1.2s-2.8.6-3.7,1.7c-.8,1.1-1.2,2.6-1.2,4.6v15.9h-7.4v-17.5c0-1.5-.3-2.6-1-3.5-.6-.8-1.6-1.2-2.9-1.2s-2,.2-2.7.7c-.7.5-1.3,1.2-1.7,2.2-.4.9-.5,2-.5,3.4v15.9h-7.4v-27.4Z"/>
  <path class="st0" d="M461.2,136.9h7.2v27.4h-7.2v-27.4ZM460.7,126.7h8.3v7.2h-8.3v-7.2Z"/>
  <path class="st0" d="M486,165.1c-2.7,0-5.2-.6-7.3-1.8-2.1-1.2-3.7-2.9-4.9-5.1-1.2-2.2-1.8-4.7-1.8-7.6s.6-5.3,1.8-7.5c1.2-2.2,2.9-3.9,5-5.2,2.2-1.2,4.6-1.9,7.4-1.9s4.4.4,6.2,1.3c1.8.9,3.3,2,4.4,3.5,1.1,1.5,1.8,3.1,2,5h-7.1c-.4-1.1-1-2.1-2-2.8-.9-.7-2.1-1.1-3.6-1.1s-2.4.3-3.4,1c-1,.7-1.7,1.7-2.2,3-.5,1.3-.8,2.8-.8,4.6s.3,3.3.8,4.6,1.3,2.3,2.2,2.9c1,.6,2.1,1,3.4,1s2.6-.4,3.6-1.1c.9-.7,1.6-1.6,2-2.8h7.1c-.2,1.8-.9,3.5-2,5-1.1,1.5-2.6,2.7-4.5,3.6-1.8.9-3.9,1.3-6.3,1.3Z"/>
  <path class="st0" d="M513.2,165.1c-2.7,0-5.1-.4-7-1.2-2-.8-3.5-1.9-4.5-3.4-1-1.5-1.6-3.1-1.7-5.1h7.9c.2,1.4.7,2.5,1.7,3.3,1,.8,2.3,1.2,4.1,1.2s2.7-.3,3.6-.8c.9-.6,1.3-1.4,1.3-2.3s-.4-1.5-1.1-2c-.7-.5-2-.9-3.8-1.3l-3.3-.7c-3.2-.7-5.6-1.7-7.1-3-1.5-1.3-2.3-3.1-2.3-5.4s.5-3.2,1.5-4.5c1-1.3,2.4-2.3,4.2-2.9,1.8-.7,3.8-1,6-1s4.6.4,6.3,1.1c1.8.7,3.2,1.7,4.2,2.9,1,1.2,1.6,2.6,1.8,4.2h-7.5c-.2-1-.8-1.8-1.7-2.3-.9-.5-2-.8-3.3-.8s-2.3.2-3,.7c-.7.5-1.1,1.2-1.1,2.1s.3,1.4,1,1.9c.6.4,1.8.8,3.4,1.1l3,.6c3.1.7,5.6,1.7,7.4,3,1.8,1.3,2.8,3.1,2.8,5.4s-.6,3.5-1.7,4.8c-1.1,1.4-2.6,2.4-4.5,3.1-1.9.7-4.1,1.1-6.6,1.1Z"/>
</svg>